0
SECTION
2
HEADER
9
$INSUNITS
70
4
9
$ACADVER
1
AC1014
9
$HANDSEED
5
FFFF
0
ENDSEC
0
SECTION
2
TABLES
0
TABLE
2
VPORT
5
8
100
AcDbSymbolTable
0
ENDTAB
0
TABLE
2
LTYPE
5
5
100
AcDbSymbolTable
0
LTYPE
5
14
100
AcDbSymbolTableRecord
100
AcDbLinetypeTableRecord
2
BYBLOCK
70
0
0
LTYPE
5
15
100
AcDbSymbolTableRecord
100
AcDbLinetypeTableRecord
2
BYLAYER
70
0
0
ENDTAB
0
TABLE
2
LAYER
5
2
100
AcDbSymbolTable
70
2
0
LAYER
5
50
100
AcDbSymbolTableRecord
100
AcDbLayerTableRecord
2
0
70
0
6
CONTINUOUS
0
ENDTAB
0
TABLE
2
STYLE
5
3
100
AcDbSymbolTable
70
1
0
STYLE
5
11
100
AcDbSymbolTableRecord
100
AcDbTextStyleTableRecord
2
STANDARD
70
0
0
ENDTAB
0
TABLE
2
VIEW
5
6
100
AcDbSymbolTable
70
0
0
ENDTAB
0
TABLE
2
UCS
5
7
100
AcDbSymbolTable
70
0
0
ENDTAB
0
TABLE
2
APPID
5
9
100
AcDbSymbolTable
70
2
0
APPID
5
12
100
AcDbSymbolTableRecord
100
AcDbRegAppTableRecord
2
ACAD
70
0
0
ENDTAB
0
TABLE
2
DIMSTYLE
5
A
100
AcDbSymbolTable
70
1
0
ENDTAB
0
TABLE
2
BLOCK_RECORD
5
1
100
AcDbSymbolTable
70
1
0
BLOCK_RECORD
5
1F
100
AcDbSymbolTableRecord
100
AcDbBlockTableRecord
2
*MODEL_SPACE
0
BLOCK_RECORD
5
1B
100
AcDbSymbolTableRecord
100
AcDbBlockTableRecord
2
*PAPER_SPACE
0
ENDTAB
0
ENDSEC
0
SECTION
2
BLOCKS
0
BLOCK
5
20
100
AcDbEntity
100
AcDbBlockBegin
2
*MODEL_SPACE
0
ENDBLK
5
21
100
AcDbEntity
100
AcDbBlockEnd
0
BLOCK
5
1C
100
AcDbEntity
100
AcDbBlockBegin
2
*PAPER_SPACE
0
ENDBLK
5
1D
100
AcDbEntity
100
AcDbBlockEnd
0
ENDSEC
0
SECTION
2
ENTITIES
0
LWPOLYLINE
5
100
100
AcDbEntity
8
0
100
AcDbPolyline
90
8
70
1
43
0.0
10
32.5
20
11.25
10
32.5
20
-11.25
42
-0.41421356237309509
10
28.75
20
-15
10
-28.75
20
-15
42
-0.41421356237309509
10
-32.5
20
-11.25
10
-32.500000000000007
20
11.249999999999947
42
-0.41421356237309948
10
-28.749999999999996
20
15
10
28.749999999999964
20
15.000000000000002
42
-0.4142135623730977
0
CIRCLE
5
101
100
AcDbEntity
8
0
100
AcDbCircle
10
-24.132000000000001
20
-5.5000000000000027
30
1.1102230246251565e-15
40
0.5
0
CIRCLE
5
102
100
AcDbEntity
8
0
100
AcDbCircle
10
-21.591999999999999
20
-8.0000000000000036
30
1.1102230246251565e-15
40
0.5
0
CIRCLE
5
103
100
AcDbEntity
8
0
100
AcDbCircle
10
-24.132000000000001
20
-7.9999999999999982
30
1.1102230246251565e-15
40
0.5
0
CIRCLE
5
104
100
AcDbEntity
8
0
100
AcDbCircle
10
-21.591999999999999
20
-5.5000000000000027
30
1.1102230246251565e-15
40
0.5
0
CIRCLE
5
105
100
AcDbEntity
8
0
100
AcDbCircle
10
21.588000000000001
20
-13.000000000000004
30
-2.2204460492503131e-15
40
0.5
0
CIRCLE
5
106
100
AcDbEntity
8
0
100
AcDbCircle
10
21.588000000000001
20
-10.500000000000004
30
-2.2204460492503131e-15
40
0.5
0
CIRCLE
5
107
100
AcDbEntity
8
0
100
AcDbCircle
10
24.128000000000004
20
-10.500000000000004
30
-2.2204460492503131e-15
40
0.5
0
CIRCLE
5
108
100
AcDbEntity
8
0
100
AcDbCircle
10
24.128000000000004
20
-13.000000000000004
30
-2.2204460492503131e-15
40
0.5
0
CIRCLE
5
109
100
AcDbEntity
8
0
100
AcDbCircle
10
-29.024999999999999
20
-11.524999999999999
30
2.2204460492503131e-15
40
1.3250000000000028
0
CIRCLE
5
110
100
AcDbEntity
8
0
100
AcDbCircle
10
-29.024999999999999
20
11.524999999999999
30
2.2204460492503131e-15
40
1.3250000000000028
0
CIRCLE
5
111
100
AcDbEntity
8
0
100
AcDbCircle
10
29.024999999999999
20
11.524999999999999
30
-2.2204460492503131e-15
40
1.3249999999999993
0
CIRCLE
5
112
100
AcDbEntity
8
0
100
AcDbCircle
10
29.024999999999999
20
-11.524999999999999
30
-2.2204460492503131e-15
40
1.3249999999999993
0
CIRCLE
5
113
100
AcDbEntity
8
0
100
AcDbCircle
10
19.048000000000002
20
-10.499999999999998
30
-2.2204460492503131e-15
40
0.5
0
CIRCLE
5
114
100
AcDbEntity
8
0
100
AcDbCircle
10
16.507999999999999
20
-10.5
30
0
40
0.5
0
CIRCLE
5
115
100
AcDbEntity
8
0
100
AcDbCircle
10
13.968
20
-10.5
30
0
40
0.5
0
CIRCLE
5
116
100
AcDbEntity
8
0
100
AcDbCircle
10
11.428000000000001
20
-10.499999999999998
30
0
40
0.5
0
CIRCLE
5
117
100
AcDbEntity
8
0
100
AcDbCircle
10
8.8879999999999999
20
-10.500000000000004
30
0
40
0.5
0
CIRCLE
5
118
100
AcDbEntity
8
0
100
AcDbCircle
10
6.3480000000000008
20
-10.500000000000004
30
0
40
0.5
0
CIRCLE
5
119
100
AcDbEntity
8
0
100
AcDbCircle
10
3.8080000000000003
20
-10.5
30
0
40
0.5
0
CIRCLE
5
120
100
AcDbEntity
8
0
100
AcDbCircle
10
1.268
20
-10.5
30
0
40
0.5
0
CIRCLE
5
121
100
AcDbEntity
8
0
100
AcDbCircle
10
-1.272
20
-10.5
30
0
40
0.5
0
CIRCLE
5
122
100
AcDbEntity
8
0
100
AcDbCircle
10
-3.8119999999999998
20
-10.5
30
0
40
0.50000000000000044
0
CIRCLE
5
123
100
AcDbEntity
8
0
100
AcDbCircle
10
-6.3520000000000012
20
-10.5
30
0
40
0.5
0
CIRCLE
5
124
100
AcDbEntity
8
0
100
AcDbCircle
10
-8.8919999999999995
20
-10.500000000000004
30
0
40
0.5
0
CIRCLE
5
125
100
AcDbEntity
8
0
100
AcDbCircle
10
-11.432
20
-10.5
30
0
40
0.5
0
CIRCLE
5
126
100
AcDbEntity
8
0
100
AcDbCircle
10
-13.972
20
-10.500000000000005
30
0
40
0.5
0
CIRCLE
5
127
100
AcDbEntity
8
0
100
AcDbCircle
10
-16.512
20
-10.499999999999998
30
0
40
0.5
0
CIRCLE
5
128
100
AcDbEntity
8
0
100
AcDbCircle
10
-19.052000000000003
20
-10.5
30
2.2204460492503131e-15
40
0.5
0
CIRCLE
5
129
100
AcDbEntity
8
0
100
AcDbCircle
10
-21.591999999999999
20
-10.500000000000004
30
2.2204460492503131e-15
40
0.5
0
CIRCLE
5
130
100
AcDbEntity
8
0
100
AcDbCircle
10
-24.132000000000001
20
-10.499999999999998
30
2.2204460492503131e-15
40
0.5
0
CIRCLE
5
131
100
AcDbEntity
8
0
100
AcDbCircle
10
19.048000000000002
20
-12.999999999999998
30
-2.2204460492503131e-15
40
0.5
0
CIRCLE
5
132
100
AcDbEntity
8
0
100
AcDbCircle
10
16.507999999999999
20
-13
30
0
40
0.5
0
CIRCLE
5
133
100
AcDbEntity
8
0
100
AcDbCircle
10
13.968
20
-13.000000000000004
30
0
40
0.5
0
CIRCLE
5
134
100
AcDbEntity
8
0
100
AcDbCircle
10
11.428000000000001
20
-13
30
0
40
0.5
0
CIRCLE
5
135
100
AcDbEntity
8
0
100
AcDbCircle
10
8.8879999999999999
20
-13.000000000000004
30
0
40
0.5
0
CIRCLE
5
136
100
AcDbEntity
8
0
100
AcDbCircle
10
6.3480000000000008
20
-13.000000000000004
30
0
40
0.5
0
CIRCLE
5
137
100
AcDbEntity
8
0
100
AcDbCircle
10
3.8080000000000003
20
-13
30
0
40
0.5
0
CIRCLE
5
138
100
AcDbEntity
8
0
100
AcDbCircle
10
1.268
20
-13
30
0
40
0.5
0
CIRCLE
5
139
100
AcDbEntity
8
0
100
AcDbCircle
10
-1.272
20
-13
30
0
40
0.5
0
CIRCLE
5
140
100
AcDbEntity
8
0
100
AcDbCircle
10
-3.8119999999999998
20
-13.000000000000004
30
0
40
0.50000000000000044
0
CIRCLE
5
141
100
AcDbEntity
8
0
100
AcDbCircle
10
-6.3520000000000012
20
-13
30
0
40
0.5
0
CIRCLE
5
142
100
AcDbEntity
8
0
100
AcDbCircle
10
-8.8919999999999995
20
-13.000000000000004
30
0
40
0.5
0
CIRCLE
5
143
100
AcDbEntity
8
0
100
AcDbCircle
10
-11.432
20
-13
30
0
40
0.5
0
CIRCLE
5
144
100
AcDbEntity
8
0
100
AcDbCircle
10
-13.972
20
-13.000000000000005
30
0
40
0.5
0
CIRCLE
5
145
100
AcDbEntity
8
0
100
AcDbCircle
10
-16.512
20
-12.999999999999998
30
0
40
0.5
0
CIRCLE
5
146
100
AcDbEntity
8
0
100
AcDbCircle
10
-19.052000000000003
20
-13
30
2.2204460492503131e-15
40
0.5
0
CIRCLE
5
147
100
AcDbEntity
8
0
100
AcDbCircle
10
-21.591999999999999
20
-13.000000000000004
30
2.2204460492503131e-15
40
0.5
0
CIRCLE
5
148
100
AcDbEntity
8
0
100
AcDbCircle
10
-24.132000000000001
20
-12.999999999999998
30
2.2204460492503131e-15
40
0.5
0
ENDSEC
0
SECTION
2
OBJECTS
0
DICTIONARY
5
C
100
AcDbDictionary
3
ACAD_GROUP
350
D
3
ACAD_MLINESTYLE
350
17
0
DICTIONARY
5
D
100
AcDbDictionary
0
DICTIONARY
5
1A
330
C
100
AcDbDictionary
0
DICTIONARY
5
17
100
AcDbDictionary
0
ENDSEC
0
EOF
